<svg width="114" height="80" viewBox="0 0 114 80" fill="none" xmlns="http://www.w3.org/2000/svg">
<g filter="url(#filter0_b_733_4034)">
<mask id="path-1-inside-1_733_4034" fill="white">
<path fill-rule="evenodd" clip-rule="evenodd" d="M8 0C3.58172 0 0 3.58172 0 8V61.7594C0 66.1777 3.58172 69.7594 8 69.7594H96C100.418 69.7594 104 66.1777 104 61.7594V8C104 3.58172 100.418 0 96 0H8ZM13 12.9553C14.6569 12.9553 16 11.6168 16 9.96566C16 8.3145 14.6569 6.97597 13 6.97597C11.3431 6.97597 10 8.3145 10 9.96566C10 11.6168 11.3431 12.9553 13 12.9553ZM36 9.96564C36 11.6168 34.6569 12.9553 33 12.9553C31.3431 12.9553 30 11.6168 30 9.96564C30 8.31448 31.3431 6.97595 33 6.97595C34.6569 6.97595 36 8.31448 36 9.96564ZM23 12.9553C24.6569 12.9553 26 11.6168 26 9.96564C26 8.31448 24.6569 6.97595 23 6.97595C21.3431 6.97595 20 8.31448 20 9.96564C20 11.6168 21.3431 12.9553 23 12.9553Z"/>
</mask>
<path fill-rule="evenodd" clip-rule="evenodd" d="M8 0C3.58172 0 0 3.58172 0 8V61.7594C0 66.1777 3.58172 69.7594 8 69.7594H96C100.418 69.7594 104 66.1777 104 61.7594V8C104 3.58172 100.418 0 96 0H8ZM13 12.9553C14.6569 12.9553 16 11.6168 16 9.96566C16 8.3145 14.6569 6.97597 13 6.97597C11.3431 6.97597 10 8.3145 10 9.96566C10 11.6168 11.3431 12.9553 13 12.9553ZM36 9.96564C36 11.6168 34.6569 12.9553 33 12.9553C31.3431 12.9553 30 11.6168 30 9.96564C30 8.31448 31.3431 6.97595 33 6.97595C34.6569 6.97595 36 8.31448 36 9.96564ZM23 12.9553C24.6569 12.9553 26 11.6168 26 9.96564C26 8.31448 24.6569 6.97595 23 6.97595C21.3431 6.97595 20 8.31448 20 9.96564C20 11.6168 21.3431 12.9553 23 12.9553Z" fill="url(#paint0_radial_733_4034)" fill-opacity="0.2"/>
<path d="M0.5 8C0.5 3.85786 3.85786 0.5 8 0.5V-0.5C3.30558 -0.5 -0.5 3.30558 -0.5 8H0.5ZM0.5 61.7594V8H-0.5V61.7594H0.5ZM8 69.2594C3.85786 69.2594 0.5 65.9015 0.5 61.7594H-0.5C-0.5 66.4538 3.30558 70.2594 8 70.2594V69.2594ZM96 69.2594H8V70.2594H96V69.2594ZM103.5 61.7594C103.5 65.9015 100.142 69.2594 96 69.2594V70.2594C100.694 70.2594 104.5 66.4538 104.5 61.7594H103.5ZM103.5 8V61.7594H104.5V8H103.5ZM96 0.5C100.142 0.5 103.5 3.85786 103.5 8H104.5C104.5 3.30558 100.694 -0.5 96 -0.5V0.5ZM8 0.5H96V-0.5H8V0.5ZM15.5 9.96566C15.5 11.3391 14.3823 12.4553 13 12.4553V13.4553C14.9314 13.4553 16.5 11.8946 16.5 9.96566H15.5ZM13 7.47597C14.3823 7.47597 15.5 8.59226 15.5 9.96566H16.5C16.5 8.03673 14.9314 6.47597 13 6.47597V7.47597ZM10.5 9.96566C10.5 8.59226 11.6177 7.47597 13 7.47597V6.47597C11.0686 6.47597 9.5 8.03673 9.5 9.96566H10.5ZM13 12.4553C11.6177 12.4553 10.5 11.3391 10.5 9.96566H9.5C9.5 11.8946 11.0686 13.4553 13 13.4553V12.4553ZM33 13.4553C34.9314 13.4553 36.5 11.8946 36.5 9.96564H35.5C35.5 11.339 34.3823 12.4553 33 12.4553V13.4553ZM29.5 9.96564C29.5 11.8946 31.0686 13.4553 33 13.4553V12.4553C31.6177 12.4553 30.5 11.339 30.5 9.96564H29.5ZM33 6.47595C31.0686 6.47595 29.5 8.03672 29.5 9.96564H30.5C30.5 8.59224 31.6177 7.47595 33 7.47595V6.47595ZM36.5 9.96564C36.5 8.03672 34.9314 6.47595 33 6.47595V7.47595C34.3823 7.47595 35.5 8.59225 35.5 9.96564H36.5ZM25.5 9.96564C25.5 11.339 24.3823 12.4553 23 12.4553V13.4553C24.9314 13.4553 26.5 11.8946 26.5 9.96564H25.5ZM23 7.47595C24.3823 7.47595 25.5 8.59224 25.5 9.96564H26.5C26.5 8.03672 24.9314 6.47595 23 6.47595V7.47595ZM20.5 9.96564C20.5 8.59224 21.6177 7.47595 23 7.47595V6.47595C21.0686 6.47595 19.5 8.03672 19.5 9.96564H20.5ZM23 12.4553C21.6177 12.4553 20.5 11.339 20.5 9.96564H19.5C19.5 11.8946 21.0686 13.4553 23 13.4553V12.4553Z" fill="url(#paint1_radial_733_4034)" mask="url(#path-1-inside-1_733_4034)"/>
<path d="M0.5 8C0.5 3.85786 3.85786 0.5 8 0.5V-0.5C3.30558 -0.5 -0.5 3.30558 -0.5 8H0.5ZM0.5 61.7594V8H-0.5V61.7594H0.5ZM8 69.2594C3.85786 69.2594 0.5 65.9015 0.5 61.7594H-0.5C-0.5 66.4538 3.30558 70.2594 8 70.2594V69.2594ZM96 69.2594H8V70.2594H96V69.2594ZM103.5 61.7594C103.5 65.9015 100.142 69.2594 96 69.2594V70.2594C100.694 70.2594 104.5 66.4538 104.5 61.7594H103.5ZM103.5 8V61.7594H104.5V8H103.5ZM96 0.5C100.142 0.5 103.5 3.85786 103.5 8H104.5C104.5 3.30558 100.694 -0.5 96 -0.5V0.5ZM8 0.5H96V-0.5H8V0.5ZM15.5 9.96566C15.5 11.3391 14.3823 12.4553 13 12.4553V13.4553C14.9314 13.4553 16.5 11.8946 16.5 9.96566H15.5ZM13 7.47597C14.3823 7.47597 15.5 8.59226 15.5 9.96566H16.5C16.5 8.03673 14.9314 6.47597 13 6.47597V7.47597ZM10.5 9.96566C10.5 8.59226 11.6177 7.47597 13 7.47597V6.47597C11.0686 6.47597 9.5 8.03673 9.5 9.96566H10.5ZM13 12.4553C11.6177 12.4553 10.5 11.3391 10.5 9.96566H9.5C9.5 11.8946 11.0686 13.4553 13 13.4553V12.4553ZM33 13.4553C34.9314 13.4553 36.5 11.8946 36.5 9.96564H35.5C35.5 11.339 34.3823 12.4553 33 12.4553V13.4553ZM29.5 9.96564C29.5 11.8946 31.0686 13.4553 33 13.4553V12.4553C31.6177 12.4553 30.5 11.339 30.5 9.96564H29.5ZM33 6.47595C31.0686 6.47595 29.5 8.03672 29.5 9.96564H30.5C30.5 8.59224 31.6177 7.47595 33 7.47595V6.47595ZM36.5 9.96564C36.5 8.03672 34.9314 6.47595 33 6.47595V7.47595C34.3823 7.47595 35.5 8.59225 35.5 9.96564H36.5ZM25.5 9.96564C25.5 11.339 24.3823 12.4553 23 12.4553V13.4553C24.9314 13.4553 26.5 11.8946 26.5 9.96564H25.5ZM23 7.47595C24.3823 7.47595 25.5 8.59224 25.5 9.96564H26.5C26.5 8.03672 24.9314 6.47595 23 6.47595V7.47595ZM20.5 9.96564C20.5 8.59224 21.6177 7.47595 23 7.47595V6.47595C21.0686 6.47595 19.5 8.03672 19.5 9.96564H20.5ZM23 12.4553C21.6177 12.4553 20.5 11.339 20.5 9.96564H19.5C19.5 11.8946 21.0686 13.4553 23 13.4553V12.4553Z" fill="url(#paint2_radial_733_4034)" mask="url(#path-1-inside-1_733_4034)"/>
</g>
<path fill-rule="evenodd" clip-rule="evenodd" d="M93.2737 79.9959L68.5984 79.8143L68.5902 79.7855C62.5579 79.8416 57.422 75.2374 56.9306 69.1519C56.4539 63.2484 60.5154 58.0245 66.2032 56.8902C68.5104 51.7222 73.5076 47.9402 79.5635 47.4545C86.1303 46.9279 92.0903 50.4257 94.9992 55.8751C100.561 56.6026 105.051 61.1163 105.519 66.913C106.058 73.5803 101.071 79.4203 94.3803 79.9568C94.1966 79.9715 94.0136 79.9821 93.8313 79.9886L93.8296 80L93.3299 79.9963C93.3111 79.9962 93.2924 79.9961 93.2737 79.9959Z" fill="url(#paint3_linear_733_4034)"/>
<path opacity="0.85" d="M105.293 50.4755C96.7344 38.4743 83.759 48.5663 83.759 54.0213C76.029 54.5669 74.9247 64.9314 83.759 64.6587H105.293C117.716 64.113 116.059 50.2026 105.293 50.4755Z" fill="url(#paint4_linear_733_4034)"/>
<defs>
<filter id="filter0_b_733_4034" x="-80" y="-80" width="264" height="229.759" filterUnits="userSpaceOnUse" color-interpolation-filters="sRGB">
<feFlood flood-opacity="0" result="BackgroundImageFix"/>
<feGaussianBlur in="BackgroundImageFix" stdDeviation="40"/>
<feComposite in2="SourceAlpha" operator="in" result="effect1_backgroundBlur_733_4034"/>
<feBlend mode="normal" in="SourceGraphic" in2="effect1_backgroundBlur_733_4034" result="shape"/>
</filter>
<radialGradient id="paint0_radial_733_4034" cx="0" cy="0" r="1" gradientUnits="userSpaceOnUse" gradientTransform="translate(15.9322 14.6782) rotate(33.6527) scale(112.64 112.594)">
<stop stop-color="#357DED"/>
<stop offset="0.770833" stop-color="#357DED" stop-opacity="0.22"/>
<stop offset="1" stop-color="#357DED" stop-opacity="0"/>
</radialGradient>
<radialGradient id="paint1_radial_733_4034" cx="0" cy="0" r="1" gradientUnits="userSpaceOnUse" gradientTransform="translate(-14.3051 -8.62536) rotate(31.3094) scale(97.8415 172.001)">
<stop stop-color="#98F9FF"/>
<stop offset="1" stop-color="white" stop-opacity="0"/>
</radialGradient>
<radialGradient id="paint2_radial_733_4034" cx="0" cy="0" r="1" gradientUnits="userSpaceOnUse" gradientTransform="translate(112.61 78.5361) rotate(-144.335) scale(96.549 167.259)">
<stop stop-color="#357DED" stop-opacity="0.49"/>
<stop offset="1" stop-color="#357DED" stop-opacity="0.51"/>
</radialGradient>
<linearGradient id="paint3_linear_733_4034" x1="81.2259" y1="47.4022" x2="81.2259" y2="80" gradientUnits="userSpaceOnUse">
<stop stop-color="#357DED"/>
<stop offset="1" stop-color="#357DED"/>
</linearGradient>
<linearGradient id="paint4_linear_733_4034" x1="95.7703" y1="44.8453" x2="95.7703" y2="64.664" gradientUnits="userSpaceOnUse">
<stop stop-color="#357DED"/>
<stop offset="1" stop-color="#357DED"/>
</linearGradient>
</defs>
</svg>
