<svg width="114" height="80" viewBox="0 0 114 80" fill="none" xmlns="http://www.w3.org/2000/svg">
<g filter="url(#filter0_b_733_4012)">
<mask id="path-1-inside-1_733_4012" fill="white">
<path fill-rule="evenodd" clip-rule="evenodd" d="M8 0C3.58172 0 0 3.58172 0 8V62.2998C0 66.7181 3.58172 70.2998 8 70.2998H96.3117C100.73 70.2998 104.312 66.7181 104.312 62.2998V8C104.312 3.58172 100.73 0 96.3117 0H8ZM13.0393 13.0557C14.7012 13.0557 16.0485 11.7068 16.0485 10.0428C16.0485 8.37888 14.7012 7.02998 13.0393 7.02998C11.3773 7.02998 10.03 8.37888 10.03 10.0428C10.03 11.7068 11.3773 13.0557 13.0393 13.0557ZM36.1085 10.0428C36.1085 11.7068 34.7612 13.0557 33.0992 13.0557C31.4373 13.0557 30.09 11.7068 30.09 10.0428C30.09 8.37887 31.4373 7.02997 33.0992 7.02997C34.7612 7.02997 36.1085 8.37887 36.1085 10.0428ZM23.0693 13.0557C24.7312 13.0557 26.0785 11.7068 26.0785 10.0428C26.0785 8.37887 24.7312 7.02997 23.0693 7.02997C21.4073 7.02997 20.06 8.37887 20.06 10.0428C20.06 11.7068 21.4073 13.0557 23.0693 13.0557Z"/>
</mask>
<path fill-rule="evenodd" clip-rule="evenodd" d="M8 0C3.58172 0 0 3.58172 0 8V62.2998C0 66.7181 3.58172 70.2998 8 70.2998H96.3117C100.73 70.2998 104.312 66.7181 104.312 62.2998V8C104.312 3.58172 100.73 0 96.3117 0H8ZM13.0393 13.0557C14.7012 13.0557 16.0485 11.7068 16.0485 10.0428C16.0485 8.37888 14.7012 7.02998 13.0393 7.02998C11.3773 7.02998 10.03 8.37888 10.03 10.0428C10.03 11.7068 11.3773 13.0557 13.0393 13.0557ZM36.1085 10.0428C36.1085 11.7068 34.7612 13.0557 33.0992 13.0557C31.4373 13.0557 30.09 11.7068 30.09 10.0428C30.09 8.37887 31.4373 7.02997 33.0992 7.02997C34.7612 7.02997 36.1085 8.37887 36.1085 10.0428ZM23.0693 13.0557C24.7312 13.0557 26.0785 11.7068 26.0785 10.0428C26.0785 8.37887 24.7312 7.02997 23.0693 7.02997C21.4073 7.02997 20.06 8.37887 20.06 10.0428C20.06 11.7068 21.4073 13.0557 23.0693 13.0557Z" fill="url(#paint0_radial_733_4012)" fill-opacity="0.2"/>
<path d="M0.5 8C0.5 3.85786 3.85786 0.5 8 0.5V-0.5C3.30558 -0.5 -0.5 3.30558 -0.5 8H0.5ZM0.5 62.2998V8H-0.5V62.2998H0.5ZM8 69.7998C3.85786 69.7998 0.5 66.442 0.5 62.2998H-0.5C-0.5 66.9942 3.30558 70.7998 8 70.7998V69.7998ZM96.3117 69.7998H8V70.7998H96.3117V69.7998ZM103.812 62.2998C103.812 66.442 100.454 69.7998 96.3117 69.7998V70.7998C101.006 70.7998 104.812 66.9942 104.812 62.2998H103.812ZM103.812 8V62.2998H104.812V8H103.812ZM96.3117 0.5C100.454 0.5 103.812 3.85786 103.812 8H104.812C104.812 3.30558 101.006 -0.5 96.3117 -0.5V0.5ZM8 0.5H96.3117V-0.5H8V0.5ZM15.5485 10.0428C15.5485 11.4312 14.4245 12.5557 13.0393 12.5557V13.5557C14.9779 13.5557 16.5485 11.9824 16.5485 10.0428H15.5485ZM13.0393 7.52998C14.4245 7.52998 15.5485 8.65446 15.5485 10.0428H16.5485C16.5485 8.1033 14.9779 6.52998 13.0393 6.52998V7.52998ZM10.53 10.0428C10.53 8.65446 11.654 7.52998 13.0393 7.52998V6.52998C11.1006 6.52998 9.53003 8.1033 9.53003 10.0428H10.53ZM13.0393 12.5557C11.654 12.5557 10.53 11.4312 10.53 10.0428H9.53003C9.53003 11.9824 11.1006 13.5557 13.0393 13.5557V12.5557ZM33.0992 13.5557C35.0379 13.5557 36.6085 11.9823 36.6085 10.0428H35.6085C35.6085 11.4312 34.4845 12.5557 33.0992 12.5557V13.5557ZM29.59 10.0428C29.59 11.9823 31.1605 13.5557 33.0992 13.5557V12.5557C31.714 12.5557 30.59 11.4312 30.59 10.0428H29.59ZM33.0992 6.52997C31.1605 6.52997 29.59 8.10329 29.59 10.0428H30.59C30.59 8.65444 31.714 7.52997 33.0992 7.52997V6.52997ZM36.6085 10.0428C36.6085 8.10329 35.0379 6.52997 33.0992 6.52997V7.52997C34.4845 7.52997 35.6085 8.65445 35.6085 10.0428H36.6085ZM25.5785 10.0428C25.5785 11.4312 24.4545 12.5557 23.0693 12.5557V13.5557C25.0079 13.5557 26.5785 11.9823 26.5785 10.0428H25.5785ZM23.0693 7.52997C24.4545 7.52997 25.5785 8.65444 25.5785 10.0428H26.5785C26.5785 8.10329 25.0079 6.52997 23.0693 6.52997V7.52997ZM20.56 10.0428C20.56 8.65444 21.684 7.52997 23.0693 7.52997V6.52997C21.1306 6.52997 19.56 8.10329 19.56 10.0428H20.56ZM23.0693 12.5557C21.684 12.5557 20.56 11.4312 20.56 10.0428H19.56C19.56 11.9823 21.1306 13.5557 23.0693 13.5557V12.5557Z" fill="url(#paint1_radial_733_4012)" mask="url(#path-1-inside-1_733_4012)"/>
<path d="M0.5 8C0.5 3.85786 3.85786 0.5 8 0.5V-0.5C3.30558 -0.5 -0.5 3.30558 -0.5 8H0.5ZM0.5 62.2998V8H-0.5V62.2998H0.5ZM8 69.7998C3.85786 69.7998 0.5 66.442 0.5 62.2998H-0.5C-0.5 66.9942 3.30558 70.7998 8 70.7998V69.7998ZM96.3117 69.7998H8V70.7998H96.3117V69.7998ZM103.812 62.2998C103.812 66.442 100.454 69.7998 96.3117 69.7998V70.7998C101.006 70.7998 104.812 66.9942 104.812 62.2998H103.812ZM103.812 8V62.2998H104.812V8H103.812ZM96.3117 0.5C100.454 0.5 103.812 3.85786 103.812 8H104.812C104.812 3.30558 101.006 -0.5 96.3117 -0.5V0.5ZM8 0.5H96.3117V-0.5H8V0.5ZM15.5485 10.0428C15.5485 11.4312 14.4245 12.5557 13.0393 12.5557V13.5557C14.9779 13.5557 16.5485 11.9824 16.5485 10.0428H15.5485ZM13.0393 7.52998C14.4245 7.52998 15.5485 8.65446 15.5485 10.0428H16.5485C16.5485 8.1033 14.9779 6.52998 13.0393 6.52998V7.52998ZM10.53 10.0428C10.53 8.65446 11.654 7.52998 13.0393 7.52998V6.52998C11.1006 6.52998 9.53003 8.1033 9.53003 10.0428H10.53ZM13.0393 12.5557C11.654 12.5557 10.53 11.4312 10.53 10.0428H9.53003C9.53003 11.9824 11.1006 13.5557 13.0393 13.5557V12.5557ZM33.0992 13.5557C35.0379 13.5557 36.6085 11.9823 36.6085 10.0428H35.6085C35.6085 11.4312 34.4845 12.5557 33.0992 12.5557V13.5557ZM29.59 10.0428C29.59 11.9823 31.1605 13.5557 33.0992 13.5557V12.5557C31.714 12.5557 30.59 11.4312 30.59 10.0428H29.59ZM33.0992 6.52997C31.1605 6.52997 29.59 8.10329 29.59 10.0428H30.59C30.59 8.65444 31.714 7.52997 33.0992 7.52997V6.52997ZM36.6085 10.0428C36.6085 8.10329 35.0379 6.52997 33.0992 6.52997V7.52997C34.4845 7.52997 35.6085 8.65445 35.6085 10.0428H36.6085ZM25.5785 10.0428C25.5785 11.4312 24.4545 12.5557 23.0693 12.5557V13.5557C25.0079 13.5557 26.5785 11.9823 26.5785 10.0428H25.5785ZM23.0693 7.52997C24.4545 7.52997 25.5785 8.65444 25.5785 10.0428H26.5785C26.5785 8.10329 25.0079 6.52997 23.0693 6.52997V7.52997ZM20.56 10.0428C20.56 8.65444 21.684 7.52997 23.0693 7.52997V6.52997C21.1306 6.52997 19.56 8.10329 19.56 10.0428H20.56ZM23.0693 12.5557C21.684 12.5557 20.56 11.4312 20.56 10.0428H19.56C19.56 11.9823 21.1306 13.5557 23.0693 13.5557V12.5557Z" fill="url(#paint2_radial_733_4012)" mask="url(#path-1-inside-1_733_4012)"/>
</g>
<path fill-rule="evenodd" clip-rule="evenodd" d="M89.8107 29.1004C89.037 27.7877 87.1383 27.7877 86.3647 29.1004L83.9541 33.1902C83.4004 34.1297 82.1961 34.4524 81.2468 33.9157L77.118 31.5812C75.7921 30.8315 74.1482 31.78 74.1337 33.3031L74.0884 38.0579C74.078 39.1476 73.1972 40.0284 72.1076 40.0388L67.3613 40.0841C65.8392 40.0987 64.8906 41.7406 65.6384 43.0665L67.9759 47.2112C68.5108 48.1596 68.1887 49.3616 67.2513 49.9156L63.1583 52.3341C61.8483 53.1082 61.8483 55.0037 63.1583 55.7778L67.2513 58.1964C68.1887 58.7503 68.5108 59.9523 67.9759 60.9007L65.6384 65.0454C64.8906 66.3713 65.8392 68.0133 67.3613 68.0278L72.1076 68.0732C73.1972 68.0836 74.078 68.9644 74.0884 70.054L74.1337 74.8088C74.1482 76.332 75.7921 77.2805 77.118 76.5308L81.2468 74.1963C82.1961 73.6595 83.4004 73.9822 83.9541 74.9217L86.3647 79.0116C87.1383 80.3242 89.037 80.3242 89.8107 79.0116L92.2212 74.9217C92.7749 73.9822 93.9792 73.6595 94.9285 74.1963L99.0573 76.5308C100.383 77.2805 102.027 76.3319 102.042 74.8088L102.087 70.054C102.097 68.9644 102.978 68.0836 104.068 68.0732L108.814 68.0278C110.336 68.0133 111.285 66.3713 110.537 65.0454L108.199 60.9007C107.665 59.9523 107.987 58.7503 108.924 58.1964L113.017 55.7778C114.327 55.0037 114.327 53.1082 113.017 52.3341L108.924 49.9156C107.987 49.3616 107.665 48.1596 108.199 47.2112L110.537 43.0665C111.285 41.7406 110.336 40.0987 108.814 40.0841L104.068 40.0388C102.978 40.0284 102.097 39.1476 102.087 38.0579L102.042 33.3031C102.027 31.78 100.383 30.8315 99.0573 31.5812L94.9285 33.9157C93.9792 34.4524 92.7749 34.1297 92.2212 33.1902L89.8107 29.1004ZM88.0884 58.2379C90.3952 58.2379 92.2652 56.3657 92.2652 54.0561C92.2652 51.7465 90.3952 49.8742 88.0884 49.8742C85.7816 49.8742 83.9115 51.7465 83.9115 54.0561C83.9115 56.3657 85.7816 58.2379 88.0884 58.2379Z" fill="url(#paint3_linear_733_4012)"/>
<defs>
<filter id="filter0_b_733_4012" x="-80" y="-80" width="264.312" height="230.3" filterUnits="userSpaceOnUse" color-interpolation-filters="sRGB">
<feFlood flood-opacity="0" result="BackgroundImageFix"/>
<feGaussianBlur in="BackgroundImageFix" stdDeviation="40"/>
<feComposite in2="SourceAlpha" operator="in" result="effect1_backgroundBlur_733_4012"/>
<feBlend mode="normal" in="SourceGraphic" in2="effect1_backgroundBlur_733_4012" result="shape"/>
</filter>
<radialGradient id="paint0_radial_733_4012" cx="0" cy="0" r="1" gradientUnits="userSpaceOnUse" gradientTransform="translate(15.98 14.7919) rotate(33.7777) scale(113.142 113.301)">
<stop stop-color="#357DED"/>
<stop offset="0.770833" stop-color="#357DED" stop-opacity="0.22"/>
<stop offset="1" stop-color="#357DED" stop-opacity="0"/>
</radialGradient>
<radialGradient id="paint1_radial_733_4012" cx="0" cy="0" r="1" gradientUnits="userSpaceOnUse" gradientTransform="translate(-14.348 -8.69218) rotate(31.4297) scale(98.2604 173.111)">
<stop stop-color="#357DED"/>
<stop offset="1" stop-color="white" stop-opacity="0"/>
</radialGradient>
<radialGradient id="paint2_radial_733_4012" cx="0" cy="0" r="1" gradientUnits="userSpaceOnUse" gradientTransform="translate(112.948 79.1445) rotate(-144.207) scale(96.9945 168.284)">
<stop stop-color="#357DED" stop-opacity="0.49"/>
<stop offset="1" stop-color="#357DED" stop-opacity="0.51"/>
</radialGradient>
<linearGradient id="paint3_linear_733_4012" x1="72.7111" y1="31.1293" x2="104.867" y2="79.311" gradientUnits="userSpaceOnUse">
<stop stop-color="#357DED"/>
<stop offset="0.639924" stop-color="#357DED"/>
<stop offset="1" stop-color="#357DED"/>
</linearGradient>
</defs>
</svg>
