<svg width="114" height="80" viewBox="0 0 114 80" fill="none" xmlns="http://www.w3.org/2000/svg">
<g filter="url(#filter0_b_733_4084)">
<mask id="path-1-inside-1_733_4084" fill="white">
<path fill-rule="evenodd" clip-rule="evenodd" d="M8 0C3.58172 0 0 3.58172 0 8V62.0171C0 66.4353 3.58171 70.0171 7.99999 70.0171H96.017C100.435 70.0171 104.017 66.4353 104.017 62.0171V8C104.017 3.58172 100.435 0 96.017 0H8ZM13.0017 13.0032C14.6586 13.0032 16.0017 11.6597 16.0017 10.0025C16.0017 8.3452 14.6586 7.00172 13.0017 7.00172C11.3449 7.00172 10.0017 8.3452 10.0017 10.0025C10.0017 11.6597 11.3449 13.0032 13.0017 13.0032ZM36.005 10.0024C36.005 11.6597 34.6618 13.0032 33.005 13.0032C31.3481 13.0032 30.005 11.6597 30.005 10.0024C30.005 8.34518 31.3481 7.00171 33.005 7.00171C34.6618 7.00171 36.005 8.34518 36.005 10.0024ZM23.0033 13.0032C24.6602 13.0032 26.0033 11.6597 26.0033 10.0024C26.0033 8.34518 24.6602 7.00171 23.0033 7.00171C21.3465 7.00171 20.0033 8.34518 20.0033 10.0024C20.0033 11.6597 21.3465 13.0032 23.0033 13.0032Z"/>
</mask>
<path fill-rule="evenodd" clip-rule="evenodd" d="M8 0C3.58172 0 0 3.58172 0 8V62.0171C0 66.4353 3.58171 70.0171 7.99999 70.0171H96.017C100.435 70.0171 104.017 66.4353 104.017 62.0171V8C104.017 3.58172 100.435 0 96.017 0H8ZM13.0017 13.0032C14.6586 13.0032 16.0017 11.6597 16.0017 10.0025C16.0017 8.3452 14.6586 7.00172 13.0017 7.00172C11.3449 7.00172 10.0017 8.3452 10.0017 10.0025C10.0017 11.6597 11.3449 13.0032 13.0017 13.0032ZM36.005 10.0024C36.005 11.6597 34.6618 13.0032 33.005 13.0032C31.3481 13.0032 30.005 11.6597 30.005 10.0024C30.005 8.34518 31.3481 7.00171 33.005 7.00171C34.6618 7.00171 36.005 8.34518 36.005 10.0024ZM23.0033 13.0032C24.6602 13.0032 26.0033 11.6597 26.0033 10.0024C26.0033 8.34518 24.6602 7.00171 23.0033 7.00171C21.3465 7.00171 20.0033 8.34518 20.0033 10.0024C20.0033 11.6597 21.3465 13.0032 23.0033 13.0032Z" fill="url(#paint0_radial_733_4084)" fill-opacity="0.2"/>
<path d="M0.5 8C0.5 3.85786 3.85786 0.5 8 0.5V-0.5C3.30558 -0.5 -0.5 3.30557 -0.5 8H0.5ZM0.5 62.0171V8H-0.5V62.0171H0.5ZM7.99999 69.5171C3.85786 69.5171 0.5 66.1592 0.5 62.0171H-0.5C-0.5 66.7115 3.30557 70.5171 7.99999 70.5171V69.5171ZM96.017 69.5171H7.99999V70.5171H96.017V69.5171ZM103.517 62.0171C103.517 66.1592 100.159 69.5171 96.017 69.5171V70.5171C100.711 70.5171 104.517 66.7115 104.517 62.0171H103.517ZM103.517 8V62.0171H104.517V8H103.517ZM96.017 0.5C100.159 0.5 103.517 3.85786 103.517 8H104.517C104.517 3.30558 100.711 -0.5 96.017 -0.5V0.5ZM8 0.5H96.017V-0.5H8V0.5ZM15.5017 10.0025C15.5017 11.3837 14.3823 12.5032 13.0017 12.5032V13.5032C14.9348 13.5032 16.5017 11.9357 16.5017 10.0025H15.5017ZM13.0017 7.50172C14.3823 7.50172 15.5017 8.62122 15.5017 10.0025H16.5017C16.5017 8.06917 14.9348 6.50172 13.0017 6.50172V7.50172ZM10.5017 10.0025C10.5017 8.62122 11.6211 7.50172 13.0017 7.50172V6.50172C11.0686 6.50172 9.50171 8.06917 9.50171 10.0025H10.5017ZM13.0017 12.5032C11.6211 12.5032 10.5017 11.3837 10.5017 10.0025H9.50171C9.50171 11.9357 11.0686 13.5032 13.0017 13.5032V12.5032ZM33.005 13.5032C34.9381 13.5032 36.505 11.9357 36.505 10.0024H35.505C35.505 11.3837 34.3856 12.5032 33.005 12.5032V13.5032ZM29.505 10.0024C29.505 11.9357 31.0718 13.5032 33.005 13.5032V12.5032C31.6244 12.5032 30.505 11.3837 30.505 10.0024H29.505ZM33.005 6.50171C31.0718 6.50171 29.505 8.06916 29.505 10.0024H30.505C30.505 8.62121 31.6244 7.50171 33.005 7.50171V6.50171ZM36.505 10.0024C36.505 8.06916 34.9381 6.50171 33.005 6.50171V7.50171C34.3856 7.50171 35.505 8.62121 35.505 10.0024H36.505ZM25.5033 10.0024C25.5033 11.3837 24.3839 12.5032 23.0033 12.5032V13.5032C24.9364 13.5032 26.5033 11.9357 26.5033 10.0024H25.5033ZM23.0033 7.50171C24.3839 7.50171 25.5033 8.62121 25.5033 10.0024H26.5033C26.5033 8.06916 24.9364 6.50171 23.0033 6.50171V7.50171ZM20.5033 10.0024C20.5033 8.62121 21.6227 7.50171 23.0033 7.50171V6.50171C21.0702 6.50171 19.5033 8.06915 19.5033 10.0024H20.5033ZM23.0033 12.5032C21.6227 12.5032 20.5033 11.3837 20.5033 10.0024H19.5033C19.5033 11.9357 21.0702 13.5032 23.0033 13.5032V12.5032Z" fill="url(#paint1_radial_733_4084)" mask="url(#path-1-inside-1_733_4084)"/>
<path d="M0.5 8C0.5 3.85786 3.85786 0.5 8 0.5V-0.5C3.30558 -0.5 -0.5 3.30557 -0.5 8H0.5ZM0.5 62.0171V8H-0.5V62.0171H0.5ZM7.99999 69.5171C3.85786 69.5171 0.5 66.1592 0.5 62.0171H-0.5C-0.5 66.7115 3.30557 70.5171 7.99999 70.5171V69.5171ZM96.017 69.5171H7.99999V70.5171H96.017V69.5171ZM103.517 62.0171C103.517 66.1592 100.159 69.5171 96.017 69.5171V70.5171C100.711 70.5171 104.517 66.7115 104.517 62.0171H103.517ZM103.517 8V62.0171H104.517V8H103.517ZM96.017 0.5C100.159 0.5 103.517 3.85786 103.517 8H104.517C104.517 3.30558 100.711 -0.5 96.017 -0.5V0.5ZM8 0.5H96.017V-0.5H8V0.5ZM15.5017 10.0025C15.5017 11.3837 14.3823 12.5032 13.0017 12.5032V13.5032C14.9348 13.5032 16.5017 11.9357 16.5017 10.0025H15.5017ZM13.0017 7.50172C14.3823 7.50172 15.5017 8.62122 15.5017 10.0025H16.5017C16.5017 8.06917 14.9348 6.50172 13.0017 6.50172V7.50172ZM10.5017 10.0025C10.5017 8.62122 11.6211 7.50172 13.0017 7.50172V6.50172C11.0686 6.50172 9.50171 8.06917 9.50171 10.0025H10.5017ZM13.0017 12.5032C11.6211 12.5032 10.5017 11.3837 10.5017 10.0025H9.50171C9.50171 11.9357 11.0686 13.5032 13.0017 13.5032V12.5032ZM33.005 13.5032C34.9381 13.5032 36.505 11.9357 36.505 10.0024H35.505C35.505 11.3837 34.3856 12.5032 33.005 12.5032V13.5032ZM29.505 10.0024C29.505 11.9357 31.0718 13.5032 33.005 13.5032V12.5032C31.6244 12.5032 30.505 11.3837 30.505 10.0024H29.505ZM33.005 6.50171C31.0718 6.50171 29.505 8.06916 29.505 10.0024H30.505C30.505 8.62121 31.6244 7.50171 33.005 7.50171V6.50171ZM36.505 10.0024C36.505 8.06916 34.9381 6.50171 33.005 6.50171V7.50171C34.3856 7.50171 35.505 8.62121 35.505 10.0024H36.505ZM25.5033 10.0024C25.5033 11.3837 24.3839 12.5032 23.0033 12.5032V13.5032C24.9364 13.5032 26.5033 11.9357 26.5033 10.0024H25.5033ZM23.0033 7.50171C24.3839 7.50171 25.5033 8.62121 25.5033 10.0024H26.5033C26.5033 8.06916 24.9364 6.50171 23.0033 6.50171V7.50171ZM20.5033 10.0024C20.5033 8.62121 21.6227 7.50171 23.0033 7.50171V6.50171C21.0702 6.50171 19.5033 8.06915 19.5033 10.0024H20.5033ZM23.0033 12.5032C21.6227 12.5032 20.5033 11.3837 20.5033 10.0024H19.5033C19.5033 11.9357 21.0702 13.5032 23.0033 13.5032V12.5032Z" fill="url(#paint2_radial_733_4084)" mask="url(#path-1-inside-1_733_4084)"/>
</g>
<rect x="71" y="53.5385" width="11.5769" height="26.4615" rx="5.78846" fill="url(#paint3_linear_733_4084)"/>
<rect x="86.7114" y="44.4423" width="11.5769" height="35.5577" rx="5.78846" fill="url(#paint4_linear_733_4084)"/>
<rect x="102.463" y="34.8988" width="11.5366" height="45.1012" rx="5.7683" fill="url(#paint5_linear_733_4084)"/>
<defs>
<filter id="filter0_b_733_4084" x="-80" y="-80" width="264.017" height="230.017" filterUnits="userSpaceOnUse" color-interpolation-filters="sRGB">
<feFlood flood-opacity="0" result="BackgroundImageFix"/>
<feGaussianBlur in="BackgroundImageFix" stdDeviation="40"/>
<feComposite in2="SourceAlpha" operator="in" result="effect1_backgroundBlur_733_4084"/>
<feBlend mode="normal" in="SourceGraphic" in2="effect1_backgroundBlur_733_4084" result="shape"/>
</filter>
<radialGradient id="paint0_radial_733_4084" cx="0" cy="0" r="1" gradientUnits="userSpaceOnUse" gradientTransform="translate(15.9348 14.7324) rotate(33.7459) scale(112.781 112.887)">
<stop stop-color="#0C55FF"/>
<stop offset="0.770833" stop-color="#357DED" stop-opacity="0.22"/>
<stop offset="1" stop-color="#0C55FF" stop-opacity="0"/>
</radialGradient>
<radialGradient id="paint1_radial_733_4084" cx="0" cy="0" r="1" gradientUnits="userSpaceOnUse" gradientTransform="translate(-14.3074 -8.65722) rotate(31.3991) scale(97.9509 172.471)">
<stop stop-color="#357DED"/>
<stop offset="1" stop-color="white" stop-opacity="0"/>
</radialGradient>
<radialGradient id="paint2_radial_733_4084" cx="0" cy="0" r="1" gradientUnits="userSpaceOnUse" gradientTransform="translate(112.629 78.8261) rotate(-144.24) scale(96.6807 167.676)">
<stop stop-color="#357DED" stop-opacity="0.49"/>
<stop offset="1" stop-color="#357DED" stop-opacity="0.51"/>
</radialGradient>
<linearGradient id="paint3_linear_733_4084" x1="76.7885" y1="53.5385" x2="76.7885" y2="80" gradientUnits="userSpaceOnUse">
<stop stop-color="#0C55FF"/>
<stop offset="1" stop-color="#357DED"/>
</linearGradient>
<linearGradient id="paint4_linear_733_4084" x1="92.4999" y1="44.4423" x2="92.4999" y2="80" gradientUnits="userSpaceOnUse">
<stop stop-color="#357DED"/>
<stop offset="1" stop-color="#357DED"/>
</linearGradient>
<linearGradient id="paint5_linear_733_4084" x1="108.232" y1="34.8988" x2="108.232" y2="80" gradientUnits="userSpaceOnUse">
<stop stop-color="#357DED"/>
<stop offset="1" stop-color="#357DED"/>
</linearGradient>
</defs>
</svg>
