<svg width="115" height="80" viewBox="0 0 115 80" fill="none" xmlns="http://www.w3.org/2000/svg">
<g filter="url(#filter0_b_733_4188)">
<mask id="path-1-inside-1_733_4188" fill="white">
<path fill-rule="evenodd" clip-rule="evenodd" d="M8 0C3.58172 0 0 3.58172 0 8V62C0 66.4183 3.58172 70 8 70H96C100.418 70 104 66.4183 104 62V8C104 3.58172 100.418 0 96 0H8ZM13 13C14.6569 13 16 11.6569 16 10C16 8.34316 14.6569 7.00001 13 7.00001C11.3431 7.00001 10 8.34316 10 10C10 11.6569 11.3431 13 13 13ZM36 10C36 11.6569 34.6569 13 33 13C31.3431 13 30 11.6569 30 10C30 8.34315 31.3431 7 33 7C34.6569 7 36 8.34315 36 10ZM23 13C24.6569 13 26 11.6569 26 10C26 8.34315 24.6569 7 23 7C21.3431 7 20 8.34315 20 10C20 11.6569 21.3431 13 23 13Z"/>
</mask>
<path fill-rule="evenodd" clip-rule="evenodd" d="M8 0C3.58172 0 0 3.58172 0 8V62C0 66.4183 3.58172 70 8 70H96C100.418 70 104 66.4183 104 62V8C104 3.58172 100.418 0 96 0H8ZM13 13C14.6569 13 16 11.6569 16 10C16 8.34316 14.6569 7.00001 13 7.00001C11.3431 7.00001 10 8.34316 10 10C10 11.6569 11.3431 13 13 13ZM36 10C36 11.6569 34.6569 13 33 13C31.3431 13 30 11.6569 30 10C30 8.34315 31.3431 7 33 7C34.6569 7 36 8.34315 36 10ZM23 13C24.6569 13 26 11.6569 26 10C26 8.34315 24.6569 7 23 7C21.3431 7 20 8.34315 20 10C20 11.6569 21.3431 13 23 13Z" fill="url(#paint0_radial_733_4188)" fill-opacity="0.2"/>
<path d="M0.5 8C0.5 3.85786 3.85786 0.5 8 0.5V-0.5C3.30558 -0.5 -0.5 3.30558 -0.5 8H0.5ZM0.5 62V8H-0.5V62H0.5ZM8 69.5C3.85786 69.5 0.5 66.1421 0.5 62H-0.5C-0.5 66.6944 3.30558 70.5 8 70.5V69.5ZM96 69.5H8V70.5H96V69.5ZM103.5 62C103.5 66.1421 100.142 69.5 96 69.5V70.5C100.694 70.5 104.5 66.6944 104.5 62H103.5ZM103.5 8V62H104.5V8H103.5ZM96 0.5C100.142 0.5 103.5 3.85786 103.5 8H104.5C104.5 3.30558 100.694 -0.5 96 -0.5V0.5ZM8 0.5H96V-0.5H8V0.5ZM15.5 10C15.5 11.3807 14.3807 12.5 13 12.5V13.5C14.933 13.5 16.5 11.933 16.5 10H15.5ZM13 7.50001C14.3807 7.50001 15.5 8.6193 15.5 10H16.5C16.5 8.06702 14.933 6.50001 13 6.50001V7.50001ZM10.5 10C10.5 8.6193 11.6193 7.50001 13 7.50001V6.50001C11.067 6.50001 9.5 8.06702 9.5 10H10.5ZM13 12.5C11.6193 12.5 10.5 11.3807 10.5 10H9.5C9.5 11.933 11.067 13.5 13 13.5V12.5ZM33 13.5C34.933 13.5 36.5 11.933 36.5 10H35.5C35.5 11.3807 34.3807 12.5 33 12.5V13.5ZM29.5 10C29.5 11.933 31.067 13.5 33 13.5V12.5C31.6193 12.5 30.5 11.3807 30.5 10H29.5ZM33 6.5C31.067 6.5 29.5 8.067 29.5 10H30.5C30.5 8.61929 31.6193 7.5 33 7.5V6.5ZM36.5 10C36.5 8.067 34.933 6.5 33 6.5V7.5C34.3807 7.5 35.5 8.61929 35.5 10H36.5ZM25.5 10C25.5 11.3807 24.3807 12.5 23 12.5V13.5C24.933 13.5 26.5 11.933 26.5 10H25.5ZM23 7.5C24.3807 7.5 25.5 8.61929 25.5 10H26.5C26.5 8.067 24.933 6.5 23 6.5V7.5ZM20.5 10C20.5 8.61929 21.6193 7.5 23 7.5V6.5C21.067 6.5 19.5 8.067 19.5 10H20.5ZM23 12.5C21.6193 12.5 20.5 11.3807 20.5 10H19.5C19.5 11.933 21.067 13.5 23 13.5V12.5Z" fill="url(#paint1_radial_733_4188)" mask="url(#path-1-inside-1_733_4188)"/>
<path d="M0.5 8C0.5 3.85786 3.85786 0.5 8 0.5V-0.5C3.30558 -0.5 -0.5 3.30558 -0.5 8H0.5ZM0.5 62V8H-0.5V62H0.5ZM8 69.5C3.85786 69.5 0.5 66.1421 0.5 62H-0.5C-0.5 66.6944 3.30558 70.5 8 70.5V69.5ZM96 69.5H8V70.5H96V69.5ZM103.5 62C103.5 66.1421 100.142 69.5 96 69.5V70.5C100.694 70.5 104.5 66.6944 104.5 62H103.5ZM103.5 8V62H104.5V8H103.5ZM96 0.5C100.142 0.5 103.5 3.85786 103.5 8H104.5C104.5 3.30558 100.694 -0.5 96 -0.5V0.5ZM8 0.5H96V-0.5H8V0.5ZM15.5 10C15.5 11.3807 14.3807 12.5 13 12.5V13.5C14.933 13.5 16.5 11.933 16.5 10H15.5ZM13 7.50001C14.3807 7.50001 15.5 8.6193 15.5 10H16.5C16.5 8.06702 14.933 6.50001 13 6.50001V7.50001ZM10.5 10C10.5 8.6193 11.6193 7.50001 13 7.50001V6.50001C11.067 6.50001 9.5 8.06702 9.5 10H10.5ZM13 12.5C11.6193 12.5 10.5 11.3807 10.5 10H9.5C9.5 11.933 11.067 13.5 13 13.5V12.5ZM33 13.5C34.933 13.5 36.5 11.933 36.5 10H35.5C35.5 11.3807 34.3807 12.5 33 12.5V13.5ZM29.5 10C29.5 11.933 31.067 13.5 33 13.5V12.5C31.6193 12.5 30.5 11.3807 30.5 10H29.5ZM33 6.5C31.067 6.5 29.5 8.067 29.5 10H30.5C30.5 8.61929 31.6193 7.5 33 7.5V6.5ZM36.5 10C36.5 8.067 34.933 6.5 33 6.5V7.5C34.3807 7.5 35.5 8.61929 35.5 10H36.5ZM25.5 10C25.5 11.3807 24.3807 12.5 23 12.5V13.5C24.933 13.5 26.5 11.933 26.5 10H25.5ZM23 7.5C24.3807 7.5 25.5 8.61929 25.5 10H26.5C26.5 8.067 24.933 6.5 23 6.5V7.5ZM20.5 10C20.5 8.61929 21.6193 7.5 23 7.5V6.5C21.067 6.5 19.5 8.067 19.5 10H20.5ZM23 12.5C21.6193 12.5 20.5 11.3807 20.5 10H19.5C19.5 11.933 21.067 13.5 23 13.5V12.5Z" fill="url(#paint2_radial_733_4188)" mask="url(#path-1-inside-1_733_4188)"/>
</g>
<path fill-rule="evenodd" clip-rule="evenodd" d="M64.3556 79.3871H58.3736L83.7968 42H89.7788L64.3556 79.3871ZM44.3566 60.6937L53.9212 51.9098C54.4255 51.4466 54.4526 50.6602 53.9814 50.1634L50.8472 46.8591C50.3866 46.3736 49.6217 46.3472 49.1287 46.7999L34 60.6937L49.1287 74.5875C49.6217 75.0402 50.3866 75.0138 50.8472 74.5282L53.9814 71.224C54.4526 70.7272 54.4255 69.9407 53.9212 69.4776L44.3566 60.6937ZM94.231 51.9098L103.796 60.6937L94.231 69.4776C93.7266 69.9407 93.6995 70.7272 94.1707 71.224L97.3049 74.5282C97.7655 75.0138 98.5305 75.0402 99.0234 74.5875L114.152 60.6937L99.0234 46.7999C98.5305 46.3472 97.7655 46.3736 97.3049 46.8591L94.1707 50.1634C93.6995 50.6602 93.7266 51.4466 94.231 51.9098Z" fill="url(#paint3_linear_733_4188)"/>
<defs>
<filter id="filter0_b_733_4188" x="-80" y="-80" width="264" height="230" filterUnits="userSpaceOnUse" color-interpolation-filters="sRGB">
<feFlood flood-opacity="0" result="BackgroundImageFix"/>
<feGaussianBlur in="BackgroundImageFix" stdDeviation="40"/>
<feComposite in2="SourceAlpha" operator="in" result="effect1_backgroundBlur_733_4188"/>
<feBlend mode="normal" in="SourceGraphic" in2="effect1_backgroundBlur_733_4188" result="shape"/>
</filter>
<radialGradient id="paint0_radial_733_4188" cx="0" cy="0" r="1" gradientUnits="userSpaceOnUse" gradientTransform="translate(15.9322 14.7288) rotate(33.7438) scale(112.759 112.862)">
<stop stop-color="#0C55FF"/>
<stop offset="0.770833" stop-color="#357DED" stop-opacity="0.22"/>
<stop offset="1" stop-color="#357DED" stop-opacity="0"/>
</radialGradient>
<radialGradient id="paint1_radial_733_4188" cx="0" cy="0" r="1" gradientUnits="userSpaceOnUse" gradientTransform="translate(-14.3051 -8.65511) rotate(31.397) scale(97.9327 172.433)">
<stop stop-color="#357DED"/>
<stop offset="1" stop-color="white" stop-opacity="0"/>
</radialGradient>
<radialGradient id="paint2_radial_733_4188" cx="0" cy="0" r="1" gradientUnits="userSpaceOnUse" gradientTransform="translate(112.61 78.8069) rotate(-144.242) scale(96.6623 167.639)">
<stop stop-color="#357DED" stop-opacity="0.49"/>
<stop offset="1" stop-color="#357DED" stop-opacity="0.51"/>
</radialGradient>
<linearGradient id="paint3_linear_733_4188" x1="64.5" y1="44" x2="72" y2="79" gradientUnits="userSpaceOnUse">
<stop stop-color="#357DED"/>
<stop offset="1" stop-color="#357DED"/>
</linearGradient>
</defs>
</svg>
